HIERARCHY
ROOT Hips
{
	OFFSET -3.958830 18.904000 13.208200
	CHANNELS 6 Xposition Yposition Zposition Zrotation Yrotation Xrotation 
	JOINT LHipJoint
	{
		OFFSET 0.000000 0.000000 0.000000
		CHANNELS 3 Zrotation Yrotation Xrotation
		JOINT LeftUpLeg
		{
			OFFSET 1.800000 -1.400000 0.085000
			CHANNELS 3 Zrotation Yrotation Xrotation
			JOINT LeftLeg
			{
				OFFSET 2.215000 -6.000000 0.000000
				CHANNELS 3 Zrotation Yrotation Xrotation
				JOINT LeftFoot
				{
					OFFSET 2.500000 -6.900000 0.000000
					CHANNELS 3 Zrotation Yrotation Xrotation
					JOINT LeftToeBase
					{
						OFFSET 0.200000 -0.500000 1.950000
						CHANNELS 3 Zrotation Yrotation Xrotation
						End Site
						{
							OFFSET 0.000000 0.000000 0.000000
						}
					}
				}
			}
		}
	}
	JOINT RHipJoint
	{
		OFFSET 0.000000 0.000000 0.000000
		CHANNELS 3 Zrotation Yrotation Xrotation
		JOINT RightUpLeg
		{
			OFFSET -1.800000 -1.400000 0.085000
			CHANNELS 3 Zrotation Yrotation Xrotation
			JOINT RightLeg
			{
				OFFSET -2.215000 -6.000000 0.000000
				CHANNELS 3 Zrotation Yrotation Xrotation
				JOINT RightFoot
				{
					OFFSET -2.500000 -6.900000 0.000000
					CHANNELS 3 Zrotation Yrotation Xrotation
					JOINT RightToeBase
					{
						OFFSET -0.200000 -0.500000 1.950000
						CHANNELS 3 Zrotation Yrotation Xrotation
						End Site
						{
							OFFSET 0.000000 0.000000 0.000000
						}
					}
				}
			}
		}
	}
	JOINT LowerBack
	{
		OFFSET 0.000000 0.000000 0.000000
		CHANNELS 3 Zrotation Yrotation Xrotation
		JOINT Spine
		{
			OFFSET -0.087000 1.940000 -0.288900
			CHANNELS 3 Zrotation Yrotation Xrotation
			JOINT Spine1
			{
				OFFSET 0.000000 1.950000 0.060000
				CHANNELS 3 Zrotation Yrotation Xrotation
				JOINT Neck
				{
					OFFSET 0.000000 0.000000 0.000000
					CHANNELS 3 Zrotation Yrotation Xrotation
					JOINT Neck1
					{
						OFFSET 0.000000 1.600000 0.340000
						CHANNELS 3 Zrotation Yrotation Xrotation
						JOINT Head
						{
							OFFSET 0.000000 1.667000 -0.240000
							CHANNELS 3 Zrotation Yrotation Xrotation
							End Site
							{
								OFFSET 0.000000 0.000000 0.000000
							}
						}
					}
				}
				JOINT LeftShoulder
				{
					OFFSET 0.000000 0.000000 0.000000
					CHANNELS 3 Zrotation Yrotation Xrotation
					JOINT LeftArm
					{
						OFFSET 2.700000 1.550000 -0.730000
						CHANNELS 3 Zrotation Yrotation Xrotation
						JOINT LeftForeArm
						{
							OFFSET 5.450000 0.000000 0.000000
							CHANNELS 3 Zrotation Yrotation Xrotation
							JOINT LeftHand
							{
								OFFSET 3.450000 0.000000 0.000000
								CHANNELS 3 Zrotation Yrotation Xrotation
								JOINT LeftHandIndex1
								{
									OFFSET 0.750000 0.000000 0.000000
									CHANNELS 3 Zrotation Yrotation Xrotation
									End Site
									{
										OFFSET 0.000000 0.000000 0.000000
									}
								}
							}
						}
					}
				}
				JOINT RightShoulder
				{
					OFFSET 0.000000 0.000000 0.000000
					CHANNELS 3 Zrotation Yrotation Xrotation
					JOINT RightArm
					{
						OFFSET -2.700000 1.550000 -0.730000
						CHANNELS 3 Zrotation Yrotation Xrotation
						JOINT RightForeArm
						{
							OFFSET -5.450000 0.000000 0.000000
							CHANNELS 3 Zrotation Yrotation Xrotation
							JOINT RightHand
							{
								OFFSET -3.450000 0.000000 0.000000
								CHANNELS 3 Zrotation Yrotation Xrotation
								JOINT RightHandIndex1
								{
									OFFSET -0.750000 0.000000 0.000000
									CHANNELS 3 Zrotation Yrotation Xrotation
									End Site
									{
										OFFSET 0.000000 0.000000 0.000000
									}
								}
							}
						}
					}
				}
			}
		}
	}
}
MOTION
Frames: 13
Frame Time: 0.016667
0.710080 17.093440 -10.654900 0.657937 -16.951197 -0.759599 -14.372979 12.346549 3.458524 -1.204209 -3.489134 -18.755780 -10.512811 4.513632 7.490749 -0.489325 2.777156 3.489911 0.428740 0.293350 0.348630 18.971514 -11.665328 2.587543 -9.192040 0.908752 -10.265877 11.902017 -8.213611 19.876985 -0.551572 -4.421561 2.819184 0.093410 -0.161970 0.063230 -5.681835 0.729655 -7.092812 27.277749 -2.634910 10.643709 -20.409694 0.378947 2.692950 5.509269 -7.072022 -9.102652 -21.766319 15.714022 66.035123 -5.252360 5.114840 -3.123370 -25.285470 0.061261 -0.057610 -48.986396 3.846980 -6.686426 -12.014412 -8.006583 -0.951952 -3.580405 2.667816 0.541840 -0.149630 0.216990 0.025850 12.289929 3.436619 4.867077 60.427923 0.275574 -9.494831 37.375525 16.977544 2.306359 2.381614 -1.340916 -0.004750 0.153400 -0.023680 -0.207650 
0.716620 17.099430 -10.648020 0.755199 -16.859341 -0.749826 -14.370242 12.342332 3.475075 -1.240151 -3.508006 -18.724275 -10.770548 4.556557 7.435440 -0.482943 2.808791 3.483485 0.417440 0.272850 0.350570 18.973224 -11.669398 2.578398 -9.228252 0.863483 -10.205745 11.699912 -8.148115 19.725526 -0.542472 -4.396204 2.831260 0.082110 -0.160540 0.065330 -5.686993 0.729618 -7.103821 27.503845 -2.679953 10.435576 -20.794657 0.378489 2.714215 5.712954 -6.909079 -9.171103 -20.985371 15.150698 65.539861 -5.452220 5.199530 -3.103300 -25.416186 -0.228952 0.075991 -48.768110 4.161921 -6.793192 -11.766512 -8.171593 -0.955050 -3.579948 2.666511 0.543510 -0.145320 0.212710 0.021120 12.001627 3.648572 5.061381 60.365467 0.103169 -9.595146 38.298064 17.231282 2.434644 2.375851 -1.352285 -0.010120 0.149020 -0.020230 -0.214060 
0.733270 17.112650 -10.630710 0.935215 -16.862615 -0.646077 -14.361604 12.310634 3.496881 -1.371336 -3.520218 -18.593637 -11.256016 4.621092 7.217215 -0.476447 2.862120 3.474188 0.386060 0.234040 0.335120 18.985036 -11.687674 2.555694 -9.313574 0.783163 -10.200725 11.246523 -7.992838 19.398628 -0.515997 -4.340060 2.857660 0.064030 -0.146510 0.061500 -5.720149 0.790464 -7.097899 28.255899 -2.821954 9.827244 -21.819179 0.333821 2.867386 6.065031 -6.784142 -9.202835 -19.889107 14.284066 63.954230 -5.641150 5.213540 -3.259940 -25.439900 -0.540655 0.277753 -48.538579 4.757839 -7.029722 -11.225024 -8.521533 -0.963494 -3.585718 2.659499 0.540970 -0.133940 0.195310 0.010800 11.275755 3.893216 5.363483 60.220495 -0.036594 -9.632421 40.550055 17.621480 2.747583 2.360389 -1.377021 -0.025920 0.150190 -0.003360 -0.219830 
0.753380 17.128120 -10.606110 1.225288 -16.729953 -0.412231 -14.360484 12.277315 3.526368 -1.539624 -3.540805 -18.527814 -11.874798 4.685936 6.860124 -0.459717 2.929175 3.473468 0.343090 0.183040 0.300260 18.993244 -11.692881 2.520249 -9.397825 0.682240 -10.227962 10.653195 -7.788866 18.966561 -0.483806 -4.265463 2.902032 0.037410 -0.107640 0.058930 -5.737595 0.819758 -7.087624 29.045832 -2.961952 8.998636 -22.965127 0.267092 2.972059 6.442618 -6.663361 -9.277228 -18.787107 13.468591 61.665141 -5.423380 5.161920 -3.224240 -25.075778 -0.746469 0.449212 -48.640237 5.235470 -7.105381 -10.466024 -8.204881 -0.996053 -3.608355 2.641736 0.535590 -0.113100 0.170180 0.013620 10.113608 4.051107 5.789379 60.244610 -0.488707 -9.867730 43.403736 18.369458 3.225825 2.333490 -1.407647 -0.047520 0.162390 0.017270 -0.215740 
0.778810 17.140540 -10.579150 1.529006 -16.484876 -0.100562 -14.366306 12.222538 3.547208 -1.713335 -3.588231 -18.556241 -12.598107 4.781687 6.623532 -0.425692 2.999970 3.463545 0.309570 0.144820 0.265720 19.001258 -11.682448 2.485482 -9.589722 0.586129 -10.274026 10.302429 -7.626041 18.389380 -0.454363 -4.213338 2.928774 0.015630 -0.076860 0.065910 -5.749635 0.860543 -7.059376 29.998682 -3.197379 7.911755 -24.203372 0.076485 3.253415 6.822135 -6.665181 -9.264865 -17.895060 12.843343 58.809272 -5.101450 5.141250 -3.035070 -24.359746 -0.721016 0.576024 -49.127615 5.541053 -7.173653 -9.692909 -7.763487 -1.018237 -3.632477 2.654861 0.515020 -0.093030 0.145630 0.018520 8.615159 4.041591 6.128520 60.308153 -0.625623 -9.871511 46.411976 19.046002 3.795989 2.309389 -1.467733 -0.053380 0.152040 0.029530 -0.205140 
0.799770 17.152770 -10.555060 2.030992 -16.347989 0.093711 -14.376087 12.173890 3.580437 -1.882584 -3.600531 -18.396844 -13.563196 4.899520 6.185905 -0.375330 3.097034 3.444504 0.271410 0.102050 0.232250 19.000901 -11.666913 2.447090 -10.059690 0.528224 -10.388601 9.992845 -7.490384 17.889268 -0.419584 -4.178774 2.951448 -0.012000 -0.046550 0.075480 -5.744188 0.877841 -7.050228 30.532073 -3.318813 6.921445 -25.259386 0.001994 3.629189 7.233362 -6.400654 -9.381340 -16.548227 12.058399 56.454546 -5.022030 5.242220 -2.345360 -23.783479 -1.126225 0.857200 -49.386937 5.851460 -7.134003 -9.174181 -6.978729 -1.027787 -3.663075 2.671952 0.484310 -0.065160 0.117780 0.019990 7.231202 4.349422 6.495854 60.189626 -0.666098 -9.828815 49.518774 19.689797 4.385235 2.286086 -1.533303 -0.053870 0.133390 0.041380 -0.194670 
0.820950 17.169800 -10.536460 2.385534 -16.175065 0.103852 -14.385015 12.147301 3.611400 -1.946158 -3.557524 -18.079565 -14.484470 5.010184 5.731950 -0.335023 3.198520 3.421249 0.245640 0.071200 0.214210 18.998449 -11.662915 2.408166 -10.257553 0.439571 -10.279309 9.374516 -7.283109 17.450440 -0.396559 -4.121965 2.980233 -0.031480 -0.031960 0.079370 -5.730231 0.880842 -7.046676 31.225860 -3.472331 6.228226 -26.228043 -0.026718 3.933335 7.673088 -6.111079 -9.619026 -15.521909 11.368113 54.999182 -5.214950 5.202830 -1.980600 -23.551790 -1.764877 1.145910 -49.466184 6.069679 -6.976026 -8.410113 -6.065111 -1.029519 -3.680496 2.674636 0.469990 -0.050960 0.103270 0.020540 6.148413 4.897025 6.914498 59.700631 -0.752393 -9.793782 52.523568 20.585965 5.090938 2.263897 -1.585742 -0.057140 0.123440 0.047800 -0.190880 
0.837790 17.179020 -10.518790 2.720185 -15.906322 0.072192 -14.396192 12.124780 3.640655 -1.984448 -3.495852 -17.715636 -15.365090 5.097999 5.207249 -0.296136 3.295405 3.396483 0.222440 0.041500 0.204720 18.994710 -11.653789 2.374389 -10.353424 0.326822 -9.935454 8.770674 -7.074880 16.919605 -0.378342 -4.075779 3.006130 -0.050770 -0.025730 0.083480 -5.709458 0.868576 -7.049743 31.761263 -3.563102 5.598996 -27.002845 -0.021861 4.262312 8.088611 -5.769450 -9.867079 -14.499879 10.601040 53.735549 -5.701210 5.207940 -1.656350 -23.307992 -2.403018 1.432952 -49.437409 6.187246 -6.789111 -7.909237 -5.273339 -1.014604 -3.696037 2.679497 0.456080 -0.038320 0.090840 0.015910 5.110264 5.429799 7.305085 59.141902 -0.798823 -9.704155 55.221236 21.519734 5.835961 2.243670 -1.634278 -0.058360 0.108980 0.052590 -0.191330 
0.854570 17.186200 -10.503060 3.029019 -15.686916 -0.023175 -14.404556 12.104884 3.663750 -2.112874 -3.403117 -17.231750 -15.999004 5.113453 4.591863 -0.275157 3.357720 3.376142 0.214690 0.029040 0.200930 18.992740 -11.654976 2.346334 -10.418618 0.228782 -9.590526 8.133872 -6.865765 16.440382 -0.371447 -4.029187 3.025444 -0.058780 -0.032720 0.088540 -5.694677 0.877650 -7.053083 32.289734 -3.573791 5.094742 -27.737162 0.072359 4.576388 8.459978 -5.426368 -10.144685 -13.614883 9.984760 52.997141 -5.933180 5.070260 -1.759620 -22.914382 -2.950947 1.685333 -49.535131 6.170313 -6.619842 -7.473236 -4.682421 -1.001707 -3.699567 2.686593 0.457850 -0.038040 0.090030 0.012140 4.016110 5.894849 7.680367 58.589212 -0.818016 -9.569059 57.786525 22.450302 6.639087 2.216879 -1.678212 -0.057840 0.094980 0.054970 -0.195670 
0.871470 17.196290 -10.492330 3.247428 -15.510162 -0.257371 -14.410503 12.115208 3.682333 -2.127830 -3.304272 -16.751229 -16.469041 5.156071 4.233311 -0.250335 3.409159 3.350361 0.214300 0.023800 0.215070 18.986559 -11.653467 2.329861 -10.478655 0.148032 -9.230279 7.629769 -6.711044 16.101535 -0.373641 -3.988783 3.032564 -0.068410 -0.058820 0.092750 -5.673199 0.840727 -7.070231 32.772254 -3.624012 4.891489 -28.300537 0.160981 4.745829 8.821445 -5.035593 -10.566138 -12.865321 9.478019 53.122086 -6.272940 4.961560 -1.867590 -22.821932 -3.687787 2.013905 -49.468493 6.293770 -6.505552 -7.155520 -4.380623 -0.980549 -3.686127 2.696903 0.463210 -0.050690 0.101540 -0.001100 3.235939 6.556537 8.095765 57.745795 -0.938352 -9.486630 60.003559 23.590461 7.517735 2.207401 -1.710853 -0.047970 0.074760 0.052340 -0.203140 
0.884730 17.204810 -10.483770 3.307962 -15.451846 -0.493218 -14.412267 12.129626 3.692899 -2.065553 -3.197727 -16.326172 -16.773771 5.194794 3.985513 -0.243455 3.458992 3.329918 0.207290 0.011660 0.221980 18.983670 -11.665051 2.316912 -10.358545 0.075594 -8.845303 6.983211 -6.536710 15.862372 -0.371977 -3.951274 3.047809 -0.075640 -0.072250 0.093060 -5.661110 0.824836 -7.081073 33.261677 -3.649046 4.779295 -28.718688 0.267204 4.940747 9.122704 -4.630502 -10.904391 -12.072343 9.003336 53.343390 -6.750670 4.948080 -1.932330 -23.044320 -4.422491 2.305061 -49.239025 6.464380 -6.404212 -6.726614 -4.262679 -0.961468 -3.681165 2.693082 0.471030 -0.053740 0.105590 -0.012100 2.880012 7.136961 8.427908 56.472414 -1.092657 -9.347103 62.213625 24.928070 8.569118 2.194708 -1.731785 -0.050270 0.067800 0.056470 -0.213180 
0.897110 17.216120 -10.477710 3.300818 -15.343595 -0.863594 -14.408948 12.155670 3.693321 -1.959699 -3.095743 -15.870011 -16.906992 5.257590 4.016180 -0.245330 3.503004 3.309366 0.219760 0.019630 0.241690 18.982698 -11.686894 2.313134 -10.179872 -0.009150 -8.364513 6.416308 -6.408837 15.737914 -0.388695 -3.929090 3.052233 -0.072240 -0.093200 0.098040 -5.655931 0.816073 -7.092067 33.836621 -3.775449 4.871437 -29.219535 0.299065 4.986862 9.404873 -4.316913 -11.182888 -11.518765 8.712633 54.128604 -7.123200 4.811680 -2.436600 -23.542503 -5.027180 2.536532 -48.592119 6.720441 -6.268811 -6.425811 -4.278097 -0.955559 -3.661353 2.687362 0.490810 -0.066420 0.123800 -0.017180 2.809364 7.640324 8.650368 54.935121 -1.047804 -9.002896 64.103038 25.897014 9.495783 2.186537 -1.742939 -0.047890 0.066680 0.052850 -0.223010 
0.909490 17.222330 -10.470410 3.263366 -15.166296 -1.179635 -14.405297 12.166878 3.697599 -1.795701 -2.996275 -15.459854 -17.205781 5.338133 3.979351 -0.235054 3.561055 3.283743 0.226970 0.024030 0.256950 18.982696 -11.713174 2.300928 -10.073099 -0.054347 -8.084383 5.973060 -6.358732 15.943467 -0.397366 -3.933682 3.047449 -0.072880 -0.108080 0.104860 -5.654397 0.837466 -7.098421 34.358254 -3.842872 4.868130 -29.687593 0.338729 5.135341 9.694842 -4.002725 -11.377364 -10.866025 8.362606 54.655060 -7.521190 4.681630 -2.648070 -23.828664 -5.466402 2.710656 -48.117070 6.817288 -6.126608 -6.063657 -4.255134 -0.940448 -3.654155 2.687813 0.496320 -0.070760 0.133460 -0.024740 2.516857 7.975279 8.825526 53.555938 -0.845941 -8.591503 65.910317 27.029444 10.573702 2.178152 -1.763183 -0.040660 0.059030 0.050850 -0.228510 
